<svg width="34" height="34" viewBox="0 0 34 34" fill="none" xmlns="http://www.w3.org/2000/svg">
<path d="M8.91887 2.36409L12.7996 16.7749V0.931354C13.1074 0.859905 13.4184 0.796981 13.7324 0.742847V16.7764L18.0973 0.567886C18.4118 0.596221 18.7239 0.633295 19.0331 0.678863L14.6331 17.0179L23.3792 1.94491C23.6641 2.07245 23.9448 2.20777 24.2209 2.35058L15.4421 17.4798L27.9749 5.00969C28.2009 5.2223 28.4208 5.44116 28.6345 5.666L16.0998 18.138L31.3069 9.40206C31.4504 9.67681 31.5864 9.95608 31.7145 10.2396L16.5695 18.9399L32.9862 14.563C33.032 14.8707 33.0692 15.1812 33.0977 15.4942L16.808 19.8371L32.9216 19.8371C32.8672 20.1496 32.8039 20.4591 32.7321 20.7653L16.8055 20.7653L31.2915 24.6274C31.1427 24.9108 30.9859 25.1894 30.8214 25.4629L16.5682 21.6629L28.4729 28.5017C28.2475 28.7323 28.0154 28.9564 27.7769 29.1736L16.1028 22.4672L24.9364 31.2567C24.657 31.4191 24.3724 31.5737 24.0829 31.72L15.4423 23.1226L21.1037 32.8794C20.7937 32.9666 20.4801 33.0451 20.163 33.1145L14.6336 23.5852L17.2996 33.4849C17.0619 33.4949 16.823 33.5 16.5829 33.5C16.501 33.5 16.4191 33.4994 16.3375 33.4982L13.7324 23.8247V33.2572C13.4184 33.203 13.1073 33.1401 12.7996 33.0687V23.8262L10.5027 32.3556C10.2097 32.2407 9.92083 32.1177 9.63629 31.9869L11.8983 23.5873L7.65207 30.9052C7.38919 30.7376 7.13137 30.563 6.8789 30.3814L11.0917 23.121L5.19195 28.9913C4.96598 28.7787 4.74602 28.5599 4.53234 28.3351L10.4303 22.4666L3.13552 26.6572C2.95299 26.406 2.7774 26.1495 2.60902 25.8879L9.96714 21.661L1.52111 23.9128C1.38965 23.6297 1.26601 23.3422 1.15047 23.0507L9.72273 20.7653L0.433725 20.7653C0.361899 20.4591 0.298641 20.1496 0.244217 19.8371L9.72022 19.8371L0.00180728 17.2461C0.000603817 17.1642 0 17.0822 0 17C0 16.7617 0.00507625 16.5246 0.015127 16.2888L9.96578 18.9417L0.387152 13.4392C0.456898 13.1237 0.535719 12.8116 0.623327 12.5031L10.4332 18.1386L1.78895 9.53753C1.93601 9.24947 2.09133 8.96628 2.25458 8.68826L11.0918 17.4813L4.34907 5.86092C4.56741 5.62365 4.79262 5.39275 5.0244 5.16853L11.8988 17.0159L8.07911 2.83174C8.35397 2.66806 8.63399 2.51208 8.91887 2.36409Z" fill="#0796D3"/>
</svg>
